<svg width="28" height="26" viewBox="0 0 28 26" fill="none" xmlns="http://www.w3.org/2000/svg">
<path d="M14 0.190058C15.8333 0.190058 17.5625 0.530058 19.1875 1.21006C20.8125 1.87006 22.2292 2.78006 23.4375 3.94006C24.6458 5.10006 25.5938 6.46006 26.2812 8.02006C26.9896 9.58006 27.3438 11.2401 27.3438 13.0001C27.3438 14.7601 26.9896 16.4201 26.2812 17.9801C25.5938 19.5401 24.6458 20.9001 23.4375 22.0601C22.2292 23.2201 20.8125 24.1301 19.1875 24.7901C17.5625 25.4701 15.8333 25.8101 14 25.8101C12.1667 25.8101 10.4375 25.4701 8.8125 24.7901C7.1875 24.1301 5.77083 23.2201 4.5625 22.0601C3.35417 20.9001 2.40625 19.5401 1.71875 17.9801C1.01042 16.4201 0.65625 14.7601 0.65625 13.0001C0.65625 11.2401 1.01042 9.58006 1.71875 8.02006C2.40625 6.46006 3.35417 5.10006 4.5625 3.94006C5.77083 2.78006 7.1875 1.87006 8.8125 1.21006C10.4375 0.530058 12.1667 0.190058 14 0.190058ZM9.34375 13.9601H16.25L13.9688 16.1501C13.7604 16.3501 13.6562 16.5801 13.6562 16.8401C13.6562 17.1001 13.7604 17.3301 13.9688 17.5301C14.0729 17.6101 14.1823 17.6751 14.2969 17.7251C14.4115 17.7751 14.5312 17.8001 14.6562 17.8001C14.7812 17.8001 14.9062 17.7751 15.0312 17.7251C15.1562 17.6751 15.2708 17.6101 15.375 17.5301L19.375 13.6901C19.5625 13.4901 19.6562 13.2601 19.6562 13.0001C19.6562 12.7401 19.5625 12.5101 19.375 12.3101L15.375 8.47006C15.1875 8.29006 14.9531 8.20006 14.6719 8.20006C14.3906 8.20006 14.1562 8.29006 13.9688 8.47006C13.7604 8.67006 13.6562 8.90006 13.6562 9.16006C13.6562 9.42006 13.7604 9.65006 13.9688 9.85006L16.25 12.0401H9.34375C9.07292 12.0401 8.83854 12.1351 8.64062 12.3251C8.44271 12.5151 8.34375 12.7401 8.34375 13.0001C8.34375 13.2601 8.44271 13.4851 8.64062 13.6751C8.83854 13.8651 9.07292 13.9601 9.34375 13.9601Z" fill="white"/>
</svg>
