<svg width="17" height="17" viewBox="0 0 17 17" fill="none" xmlns="http://www.w3.org/2000/svg">
<path d="M8.33984 0C7.19401 0 6.11328 0.221354 5.09766 0.664062C4.08203 1.10677 3.19987 1.70247 2.45117 2.45117C1.70247 3.19987 1.10677 4.08203 0.664062 5.09766C0.221354 6.11328 0 7.19401 0 8.33984C0 9.48568 0.221354 10.5664 0.664062 11.582C1.10677 12.5977 1.70247 13.4798 2.45117 14.2285C3.19987 14.9772 4.08203 15.5729 5.09766 16.0156C6.11328 16.4583 7.19401 16.6797 8.33984 16.6797C9.48568 16.6797 10.5664 16.4583 11.582 16.0156C12.5977 15.5729 13.4798 14.9772 14.2285 14.2285C14.9772 13.4798 15.5729 12.5977 16.0156 11.582C16.4583 10.5664 16.6797 9.48568 16.6797 8.33984C16.6797 7.19401 16.4583 6.11328 16.0156 5.09766C15.5729 4.08203 14.9772 3.19987 14.2285 2.45117C13.4798 1.70247 12.5977 1.10677 11.582 0.664062C10.5664 0.221354 9.48568 0 8.33984 0ZM11.6797 8.96484H8.96484V11.6797C8.96484 11.849 8.903 11.9954 8.7793 12.1191C8.6556 12.2428 8.50911 12.3047 8.33984 12.3047C8.17057 12.3047 8.02409 12.2428 7.90039 12.1191C7.77669 11.9954 7.71484 11.849 7.71484 11.6797V8.96484H5C4.83073 8.96484 4.68424 8.90299 4.56055 8.7793C4.43685 8.6556 4.375 8.50911 4.375 8.33984C4.375 8.17057 4.43685 8.02409 4.56055 7.90039C4.68424 7.77669 4.83073 7.71484 5 7.71484H7.71484V5C7.71484 4.83073 7.77669 4.68425 7.90039 4.56055C8.02409 4.43685 8.17057 4.375 8.33984 4.375C8.50911 4.375 8.6556 4.43685 8.7793 4.56055C8.903 4.68425 8.96484 4.83073 8.96484 5V7.71484H11.6797C11.849 7.71484 11.9954 7.77669 12.1191 7.90039C12.2428 8.02409 12.3047 8.17057 12.3047 8.33984C12.3047 8.50911 12.2428 8.6556 12.1191 8.7793C11.9954 8.90299 11.849 8.96484 11.6797 8.96484Z" fill="white"/>
</svg>
