<svg width="20" height="8" viewBox="0 0 20 8" fill="none" xmlns="http://www.w3.org/2000/svg">
<path d="M14.5781 7.58786C14.75 7.75973 14.9648 7.84925 15.2227 7.85641C15.4805 7.86358 15.6953 7.77406 15.8672 7.58786L18.8965 4.6445C18.9824 4.55856 19.0505 4.46188 19.1006 4.35446C19.1507 4.24704 19.1758 4.12887 19.1758 3.99997C19.1758 3.87106 19.1507 3.7529 19.1006 3.64548C19.0505 3.53805 18.9824 3.44137 18.8965 3.35544L15.8672 0.412077C15.6953 0.22588 15.4805 0.136362 15.2227 0.143523C14.9648 0.150684 14.75 0.240202 14.5781 0.412077C14.3919 0.598276 14.3024 0.8167 14.3096 1.06735C14.3167 1.318 14.4062 1.53643 14.5781 1.72262L16.0176 3.07614H1.75195C1.49414 3.07614 1.27572 3.16566 1.09668 3.34469C0.917643 3.52373 0.828125 3.74216 0.828125 3.99997C0.828125 4.25778 0.917643 4.47621 1.09668 4.65524C1.27572 4.83428 1.49414 4.9238 1.75195 4.9238H16.0176L14.5781 6.27731C14.4062 6.46351 14.3167 6.68193 14.3096 6.93259C14.3024 7.18324 14.3919 7.40166 14.5781 7.58786Z" fill="white"/>
</svg>
